<svg xmlns="http://www.w3.org/2000/svg">
  <symbol id="documentation-icon" viewBox="0 0 21 20">
    <path fill="none" stroke="#aa3bff" stroke-linecap="round" stroke-linejoin="round" stroke-width="1.35" d="m15.5 13.333 1.533 1.322c.645.555.967.833.967 1.178s-.322.623-.967 1.179L15.5 18.333m-3.333-5-1.534 1.322c-.644.555-.966.833-.966 1.178s.322.623.966 1.179l1.534 1.321"/>
    <path fill="none" stroke="#aa3bff" stroke-linecap="round" stroke-linejoin="round" stroke-width="1.35" d="M17.167 10.836v-4.32c0-1.41 0-2.117-.224-2.68-.359-.906-1.118-1.621-2.08-1.96-.599-.21-1.349-.21-2.848-.21-2.623 0-3.935 0-4.983.369-1.684.591-3.013 1.842-3.641 3.428C3 6.449 3 7.684 3 10.154v2.122c0 2.558 0 3.838.706 4.726q.306.383.713.671c.76.536 1.79.64 3.581.66"/>
    <path fill="none" stroke="#aa3bff" stroke-linecap="round" stroke-linejoin="round" stroke-width="1.35" d="M3 10a2.78 2.78 0 0 1 2.778-2.778c.555 0 1.209.097 1.748-.047.48-.129.854-.503.982-.982.145-.54.048-1.194.048-1.749a2.78 2.78 0 0 1 2.777-2.777"/>
  </symbol>
  
  <symbol id="github-icon" viewBox="0 0 19 19">
    <path fill="#08060d" fill-rule="evenodd" d="M9.356 1.85C5.05 1.85 1.57 5.356 1.57 9.694a7.84 7.84 0 0 0 5.324 7.44c.387.079.528-.168.528-.376 0-.182-.013-.805-.013-1.454-2.165.467-2.616-.935-2.616-.935-.349-.91-.864-1.143-.864-1.143-.71-.48.051-.48.051-.48.787.051 1.2.805 1.2.805.695 1.194 1.817.857 2.268.649.064-.507.27-.857.49-1.052-1.728-.182-3.545-.857-3.545-3.87 0-.857.31-1.558.8-2.104-.078-.195-.349-1 .077-2.078 0 0 .657-.208 2.14.805a7.5 7.5 0 0 1 1.946-.26c.657 0 1.328.092 1.946.26 1.483-1.013 2.14-.805 2.14-.805.426 1.078.155 1.883.078 2.078.502.546.799 1.247.799 2.104 0 3.013-1.818 3.675-3.558 3.87.284.247.528.714.528 1.454 0 1.052-.012 1.896-.012 2.156 0 .208.142.455.528.377a7.84 7.84 0 0 0 5.324-7.441c.013-4.338-3.48-7.844-7.773-7.844" clip-rule="evenodd"/>
  </symbol>
  
  <symbol id="social-icon" viewBox="0 0 20 20">
    <path fill="none" stroke="#aa3bff" stroke-linecap="round" stroke-linejoin="round" stroke-width="1.35" d="M12.5 6.667a4.167 4.167 0 1 0-8.334 0 4.167 4.167 0 0 0 8.334 0"/>
    <path fill="none" stroke="#aa3bff" stroke-linecap="round" stroke-linejoin="round" stroke-width="1.35" d="M2.5 16.667a5.833 5.833 0 0 1 8.75-5.053m3.837.474.513 1.035c.07.144.257.282.414.309l.93.155c.596.1.736.536.307.965l-.723.73a.64.64 0 0 0-.152.531l.207.903c.164.715-.213.991-.84.618l-.872-.52a.63.63 0 0 0-.577 0l-.872.52c-.624.373-1.003.094-.84-.618l.207-.903a.64.64 0 0 0-.152-.532l-.723-.729c-.426-.43-.289-.864.306-.964l.93-.156a.64.64 0 0 0 .412-.31l.513-1.034c.28-.562.735-.562 1.012 0"/>
  </symbol>
  
  <symbol id="linkedin-icon" viewBox="0 0 24 24">
  <path fill="#08060d" d="M20.447 20.452h-3.554v-5.569c0-1.328-.027-3.037-1.852-3.037-1.853 0-2.136 1.445-2.136 2.939v5.667H9.351V9h3.414v1.561h.046c.477-.9 1.637-1.85 3.37-1.85 3.601 0 4.267 2.37 4.267 5.455v6.286zM5.337 7.433a2.062 2.062 0 0 1-2.063-2.065 2.064 2.064 0 1 1 2.063 2.065zm1.782 13.019H3.555V9h3.564v11.452zM22.225 0H1.771C.792 0 0 .774 0 1.729v20.542C0 23.227.792 24 1.771 24h20.451C23.2 24 24 23.227 24 22.271V1.729C24 .774 23.2 0 22.222 0h.003z"/>
  
  <symbol id="python-icon" viewBox="0 0 24 24">
  <path fill="#08060d" d="M14.25.18l.9.2.73.26.59.3.45.32.34.34.25.34.16.33.1.3.04.26.02.2-.01.13V8.5l-.05.63-.13.55-.21.46-.26.38-.3.31-.33.25-.35.19-.35.14-.33.1-.3.07-.26.04-.21.02H8.77l-.69.05-.59.14-.5.22-.41.27-.33.32-.27.35-.2.36-.15.37-.1.35-.07.32-.04.27-.02.21v3.06H3.17l-.21-.03-.28-.07-.32-.12-.35-.18-.36-.26-.36-.36-.35-.46-.32-.59-.28-.73-.21-.88-.14-1.05-.05-1.23.06-1.22.16-1.04.24-.87.32-.71.36-.57.4-.44.42-.33.42-.24.4-.16.36-.1.32-.05.24-.01h.16l.06.01h8.16v-.83H6.18l-.01-2.75-.02-.37.05-.34.11-.31.17-.28.25-.26.31-.23.38-.2.44-.18.51-.15.58-.12.64-.1.71-.06.77-.04.84-.02 1.27.05zm-6.3 1.98l-.23.33-.08.41.08.41.23.34.33.22.41.09.41-.09.33-.22.23-.34.08-.41-.08-.41-.23-.33-.33-.22-.41-.09-.41.09zm13.09 3.95l.28.06.32.12.35.18.36.27.36.35.35.47.32.59.28.73.21.88.14 1.04.05 1.23-.06 1.23-.16 1.04-.24.86-.32.71-.36.57-.4.45-.42.33-.42.24-.4.16-.36.09-.32.05-.24.02-.16-.01h-8.22v.82h5.84l.01 2.76.02.36-.05.34-.11.31-.17.29-.25.25-.31.24-.38.2-.44.17-.51.15-.58.13-.64.09-.71.07-.77.04-.84.01-1.27-.04-1.07-.14-.9-.2-.73-.25-.59-.3-.45-.33-.34-.34-.25-.34-.16-.33-.1-.3-.04-.25-.02-.2.01-.13v-5.34l.05-.64.13-.54.21-.46.26-.38.3-.32.33-.24.35-.2.35-.14.33-.1.3-.06.26-.04.21-.02.13-.01h5.84l.69-.05.59-.14.5-.21.41-.28.33-.32.27-.35.2-.36.15-.36.1-.35.07-.32.04-.28.02-.21V6.07h2.09l.14.01zm-6.47 14.25l-.23.33-.08.41.08.41.23.33.33.23.41.08.41-.08.33-.23.23-.33.08-.41-.08-.41-.23-.33-.33-.23-.41-.08-.41.08z"/>
</symbol>

<symbol id="sql-icon" viewBox="0 0 24 24">
  <path fill="none" stroke="#08060d" stroke-width="2" stroke-linecap="round" stroke-linejoin="round" d="M12 8a2 2 0 0 1 2 2v4a2 2 0 1 1-4 0v-4a2 2 0 0 1 2-2"/>
  <path fill="none" stroke="#08060d" stroke-width="2" stroke-linecap="round" stroke-linejoin="round" d="M17 8v8h4"/>
  <path fill="none" stroke="#08060d" stroke-width="2" stroke-linecap="round" stroke-linejoin="round" d="M13 15l1 1"/>
  <path fill="none" stroke="#08060d" stroke-width="2" stroke-linecap="round" stroke-linejoin="round" d="M3 15a1 1 0 0 0 1 1h2a1 1 0 0 0 1-1v-2a1 1 0 0 0-1-1h-2a1 1 0 0 1-1-1v-2a1 1 0 0 1 1-1h2a1 1 0 0 1 1 1"/>
</symbol>

<symbol id="javascript-icon" viewBox="0 0 16 16">
  <path fill="#08060d" fill-rule="evenodd" d="M14 0a2 2 0 0 1 2 2v12a2 2 0 0 1-2 2H2a2 2 0 0 1-2-2V2a2 2 0 0 1 2-2zM9.053 7.596v3.127l-.007 1.752q0 .498-.186.752t-.556.263q-.342 0-.528-.234-.185-.234-.185-.684v-.175H6.37v.185q0 .665.253 1.113.255.45.703.674.44.225 1.016.225.88 0 1.406-.498.527-.498.527-1.485l.007-1.752V7.596zm3.808-.108q-.585 0-1.006.244a1.67 1.67 0 0 0-.634.674 2.1 2.1 0 0 0-.225.996q0 .753.293 1.182.303.42.967.732l.469.215q.438.186.625.43.185.244.185.635 0 .478-.166.703-.156.224-.527.224-.361.001-.547-.244-.186-.243-.205-.752h-1.162q.02.996.498 1.524.479.527 1.386.527.909 0 1.417-.518.507-.517.507-1.484 0-.81-.332-1.289t-1.045-.79l-.449-.196q-.39-.166-.556-.381-.166-.214-.166-.576 0-.4.165-.596.177-.195.508-.195.361 0 .508.234.156.234.176.703h1.123q-.03-.976-.498-1.484-.47-.518-1.309-.518"/>
</symbol>

<symbol id="css-icon" viewBox="0 0 16 16">
  <path fill="#08060d" fill-rule="evenodd" d="M14 0a2 2 0 0 1 2 2v12a2 2 0 0 1-2 2H2a2 2 0 0 1-2-2V0zM4.59 7.498q-.908 0-1.455.508-.547.507-.547 1.484v3.106q0 .986.527 1.484t1.406.498q.576 0 1.016-.224.45-.225.703-.674.255-.45.254-1.114v-.185h-1.22v.176q0 .449-.186.683t-.527.235q-.372-.01-.557-.264-.186-.255-.186-.752V9.686q0-.547.166-.811.177-.264.577-.264.321 0 .517.225.195.224.195.693v.205h1.23V9.52q0-.674-.243-1.124a1.55 1.55 0 0 0-.664-.673q-.42-.225-1.006-.225m4.214-.01q-.586 0-1.006.244a1.67 1.67 0 0 0-.635.674 2.1 2.1 0 0 0-.225.996q0 .753.293 1.182.304.42.967.732l.469.215q.44.186.625.43.186.244.186.635 0 .478-.166.703-.157.224-.528.224-.36 0-.547-.244-.185-.243-.205-.752H6.87q.02.996.498 1.524.479.527 1.387.527t1.416-.518.508-1.484q0-.81-.332-1.289-.333-.479-1.045-.79l-.45-.196q-.39-.166-.556-.381-.165-.214-.166-.576 0-.4.166-.596.175-.195.508-.195.36 0 .508.234.156.234.175.703h1.123q-.03-.976-.498-1.484-.468-.518-1.308-.518m4.057 0q-.585 0-1.006.244a1.67 1.67 0 0 0-.634.674 2.1 2.1 0 0 0-.225.996q0 .753.293 1.182.303.42.967.732l.469.215q.438.186.625.43.185.244.185.635 0 .478-.166.703-.156.224-.527.224-.361.001-.547-.244-.186-.243-.205-.752h-1.162q.02.996.498 1.524.479.527 1.386.527.909 0 1.417-.518.507-.517.507-1.484 0-.81-.332-1.289t-1.045-.79l-.449-.196q-.39-.166-.556-.381-.166-.214-.166-.576 0-.4.165-.596.177-.195.508-.195.361 0 .508.234.156.234.176.703h1.123q-.03-.976-.498-1.484-.47-.518-1.309-.518"/>
</symbol>

<symbol id="html-icon" viewBox="0 0 256 256">
  <path fill="#08060d" d="M216,120V88a8,8,0,0,0-2.34-5.66l-56-56A8,8,0,0,0,152,24H56A16,16,0,0,0,40,40v80a8,8,0,0,0,16,0V40h88V88a8,8,0,0,0,8,8h48v24a8,8,0,0,0,16,0ZM160,51.31,188.69,80H160ZM68,160v48a8,8,0,0,1-16,0V192H32v16a8,8,0,0,1-16,0V160a8,8,0,0,1,16,0v16H52V160a8,8,0,0,1,16,0Zm56,0a8,8,0,0,1-8,8h-8v40a8,8,0,0,1-16,0V168H84a8,8,0,0,1,0-16h32A8,8,0,0,1,124,160Zm72,0v48a8,8,0,0,1-16,0V184l-9.6,12.8a8,8,0,0,1-12.8,0L148,184v24a8,8,0,0,1-16,0V160a8,8,0,0,1,14.4-4.8L164,178.67l17.6-23.47A8,8,0,0,1,196,160Zm56,48a8,8,0,0,1-8,8H216a8,8,0,0,1-8-8V160a8,8,0,0,1,16,0v40h20A8,8,0,0,1,252,208Z"/>
</symbol>
</symbol>
</svg>
